<svg height="512pt" viewBox="-91 0 512 512" width="512pt" xmlns="http://www.w3.org/2000/svg"><path d="m330 0v91l-30 30h-270l-30-30v-91zm0 0" fill="#ff641a"/><path d="m330 0v91l-30 30h-135v-121zm0 0" fill="#f03800"/><path d="m330 91v421l-165-88.199219-165 88.199219v-421zm0 0" fill="#ff9100"/><path d="m330 91v421l-165-88.199219v-332.800781zm0 0" fill="#ff641a"/><path d="m279.300781 220.300781-78-11.101562-35.101562-70.800781-1.199219 2.402343-33.601562 68.398438-78.296876 11.402343 56.699219 54.898438-13.5 78 68.699219-36.300781 1.199219-.601563 69.902343 36.902344-13.203124-78zm0 0" fill="#ffda2d"/><path d="m279.300781 220.300781-56.402343 55.199219 13.203124 78-69.902343-36.902344-1.199219.601563v-176.398438l1.199219-2.402343 35.101562 70.800781zm0 0" fill="#fdbf00"/></svg>